<?xml version="1.0" encoding="UTF-8"?>
<!DOCTYPE svg PUBLIC "-//W3C//DTD SVG 1.1//EN" "http://www.w3.org/Graphics/SVG/1.1/DTD/svg11.dtd">
<svg version="1.1" xmlns="http://www.w3.org/2000/svg" xmlns:xlink="http://www.w3.org/1999/xlink" x="0" y="0" width="28" height="28" viewBox="0, 0, 28, 28">
  <g id="Layer_1">
    <path d="M19.857,10.33 L16.198,14.011 L19.857,17.67 C20.01,17.823 20.01,18.071 19.857,18.224 L18.196,19.885 C18.044,20.038 17.796,20.038 17.643,19.885 L13.99,16.232 L10.359,19.885 C10.206,20.038 9.958,20.038 9.805,19.885 L8.144,18.224 C7.991,18.071 7.991,17.823 8.144,17.67 L11.775,14.017 L8.144,10.386 C7.991,10.233 7.991,9.985 8.144,9.832 L9.805,8.171 C9.958,8.018 10.206,8.018 10.359,8.171 L13.983,11.795 L17.643,8.114 C17.796,7.961 18.044,7.961 18.196,8.114 L19.857,9.775 C20.009,9.929 20.009,10.177 19.857,10.33 z" fill="#DD5228"/>
  </g>
</svg>
