<?xml version="1.0" encoding="UTF-8" standalone="no"?>
<svg
   width="20"
   height="20"
   viewBox="0 0 20 20"
   fill="none"
   version="1.1"
   id="svg4"
   sodipodi:docname="company.svg"
   inkscape:version="1.1 (c68e22c387, 2021-05-23)"
   xmlns:inkscape="http://www.inkscape.org/namespaces/inkscape"
   xmlns:sodipodi="http://sodipodi.sourceforge.net/DTD/sodipodi-0.dtd"
   xmlns="http://www.w3.org/2000/svg"
   xmlns:svg="http://www.w3.org/2000/svg">
  <defs
     id="defs8" />
  <sodipodi:namedview
     id="namedview6"
     pagecolor="#ffffff"
     bordercolor="#999999"
     borderopacity="1"
     inkscape:pageshadow="0"
     inkscape:pageopacity="0"
     inkscape:pagecheckerboard="0"
     showgrid="false"
     inkscape:zoom="20.8"
     inkscape:cx="7.8605769"
     inkscape:cy="7.7163461"
     inkscape:window-width="1920"
     inkscape:window-height="1017"
     inkscape:window-x="1912"
     inkscape:window-y="-8"
     inkscape:window-maximized="1"
     inkscape:current-layer="svg4" />
  <path
     fill-rule="evenodd"
     clip-rule="evenodd"
     d="M 3.9722222,3.9722222 H 3.111111 V 4.8333333 H 16.88889 V 3.9722222 H 16.027778 V 3.111111 H 12.583334 L 11.722222,2.25 H 8.2777777 L 7.4166668,3.111111 H 3.9722222 Z M 3.111111,16.027778 H 2.25 V 17.75 H 8.2777777 V 15.166666 H 11.722222 V 17.75 H 17.75 V 16.027778 H 16.88889 V 5.6944445 H 3.111111 Z M 7.4166668,7.4166668 H 3.9722222 V 9.1388889 H 7.4166668 Z M 3.9722222,10.861112 h 3.4444446 v 1.722222 H 3.9722222 Z M 11.722222,7.4166668 H 8.2777777 V 9.1388889 H 11.722222 Z M 8.2777777,10.861112 h 3.4444443 v 1.722222 H 8.2777777 Z M 16.027778,7.4166668 h -3.444444 v 1.7222221 h 3.444444 z m -3.444444,3.4444452 h 3.444444 v 1.722222 h -3.444444 z"
     fill="#333333"
     id="path2"
     style="stroke-width:0.861112" />
</svg>
