<?xml version="1.0" encoding="UTF-8" standalone="no"?>
<svg
   viewBox="159.5 100.5 2040 2249.5"
   version="1.1"
   id="svg4"
   sodipodi:docname="svg-path.svg"
   inkscape:version="1.1 (c68e22c387, 2021-05-23)"
   xmlns:inkscape="http://www.inkscape.org/namespaces/inkscape"
   xmlns:sodipodi="http://sodipodi.sourceforge.net/DTD/sodipodi-0.dtd"
   xmlns="http://www.w3.org/2000/svg"
   xmlns:svg="http://www.w3.org/2000/svg">
  <defs
     id="defs8" />
  <sodipodi:namedview
     id="namedview6"
     pagecolor="#ffffff"
     bordercolor="#999999"
     borderopacity="1"
     inkscape:pageshadow="0"
     inkscape:pageopacity="0"
     inkscape:pagecheckerboard="0"
     showgrid="false"
     inkscape:zoom="0.26153049"
     inkscape:cx="1164.3002"
     inkscape:cy="1049.5908"
     inkscape:window-width="1920"
     inkscape:window-height="1017"
     inkscape:window-x="1912"
     inkscape:window-y="-8"
     inkscape:window-maximized="1"
     inkscape:current-layer="svg4" />
  <path
     d="m 159.5,1727.2649 q -4.5,-181 123.5,-309 l 209,-209 q 46,153 159,266 l -156,156 q -42,48 -35,101.5 7,53.5 50,97.5 l 164,164 q 46,45 105,55 59,10 105,-29 l 524,-525 q 39,-45 29,-104 -10,-59 -55,-104 l -270,-270 -2,-2 212,-212.00003 2,1 270,270.00003 q 91,91 126.5,207 35.5,116 9.5,229 -26,113 -110,197 l -524,525 q -126,125 -312,117.5 -186,-7.5 -322,-143.5 l -164,-164 q -134,-134 -138.5,-315 z m 471,-784.50003 q -27.5,111.50003 5.5,224.50003 33,113 121,202 l 1,1 281,282 213,-213 -281,-280 -2,-3 q -43,-43 -49.5,-96 -6.5,-53 34.5,-101.00003 l 525,-525 q 29,-29 67,-34 38,-5 71,9.5 33,14.5 60,41.5 l 164,164 q 46,45 56,104 10,59 -29,104 l -157,157 q 112,118.00003 156,269.00003 l 213,-214 q 127,-128.00003 119.5,-310.50003 -7.5,-182.5 -146.5,-321.5 l -164,-164 q -134,-134 -314,-139 -180,-5.000004 -308,122 l -525,525 q -84,84 -111.5,195.5 z"
     fill="#000000"
     id="path2" />
</svg>
