<?xml version="1.0" encoding="UTF-8" standalone="no"?>
<!-- Generator: Adobe Illustrator 19.0.0, SVG Export Plug-In . SVG Version: 6.00 Build 0)  -->

<svg
   xmlns:dc="http://purl.org/dc/elements/1.1/"
   xmlns:cc="http://creativecommons.org/ns#"
   xmlns:rdf="http://www.w3.org/1999/02/22-rdf-syntax-ns#"
   xmlns:svg="http://www.w3.org/2000/svg"
   xmlns="http://www.w3.org/2000/svg"
   xmlns:sodipodi="http://sodipodi.sourceforge.net/DTD/sodipodi-0.dtd"
   xmlns:inkscape="http://www.inkscape.org/namespaces/inkscape"
   version="1.1"
   id="Layer_1"
   x="0px"
   y="0px"
   viewBox="0 0 512 512"
   xml:space="preserve"
   sodipodi:docname="linkedin.svg"
   width="512"
   height="512"
   inkscape:version="0.92.3 (2405546, 2018-03-11)"><metadata
   id="metadata899"><rdf:RDF><cc:Work
       rdf:about=""><dc:format>image/svg+xml</dc:format><dc:type
         rdf:resource="http://purl.org/dc/dcmitype/StillImage" /><dc:title></dc:title></cc:Work></rdf:RDF></metadata><defs
   id="defs897">
	
	
</defs><sodipodi:namedview
   pagecolor="#ffffff"
   bordercolor="#666666"
   borderopacity="1"
   objecttolerance="10"
   gridtolerance="10"
   guidetolerance="10"
   inkscape:pageopacity="0"
   inkscape:pageshadow="2"
   inkscape:window-width="1920"
   inkscape:window-height="1017"
   id="namedview895"
   showgrid="false"
   inkscape:zoom="0.94945055"
   inkscape:cx="260.10323"
   inkscape:cy="308.26418"
   inkscape:window-x="1912"
   inkscape:window-y="-8"
   inkscape:window-maximized="1"
   inkscape:current-layer="Layer_1" />
<path
   inkscape:connector-curvature="0"
   id="path858"
   d="m 256.221,256.3325 v -0.665 c -0.136,0.223 -0.324,0.446 -0.442,0.665 z"
   style="clip-rule:evenodd;fill-rule:evenodd" /><path
   inkscape:connector-curvature="0"
   id="path860"
   d="M 116.25163,500.62466 H 6.5275953 V 170.51306 H 116.25163 Z M 61.389614,125.45706 H 60.664687 C 23.857576,125.45706 1.7e-6,100.09925 1.7e-6,68.404014 c 0,-32.390909 24.5548693,-57.030299 62.1080373,-57.030299 37.561299,0 60.643561,24.63939 61.361991,57.030299 0,31.695236 -23.800692,57.053046 -62.080416,57.053046 z M 512,500.62466 H 402.2467 V 324.01391 c 0,-44.3587 -15.85736,-74.63822 -55.58044,-74.63822 -30.3364,0 -48.36368,20.38735 -56.30537,40.13592 -2.8867,7.05423 -3.64089,16.86024 -3.64089,26.75241 V 500.62628 H 176.94558 c 0,0 1.47098,-299.14291 0,-330.1116 H 286.72 v 46.7773 C 301.30469,194.85013 327.33217,162.7648 385.63515,162.7648 457.86291,162.7648 512,209.93381 512,311.32281 Z"
   style="clip-rule:evenodd;fill-rule:evenodd;stroke-width:1.62539673;fill:#ffffff"
   sodipodi:nodetypes="cccccsssscsccsscsccccccsc" />
<g
   id="g864"
   transform="translate(0,57)">
</g>
<g
   id="g866"
   transform="translate(0,57)">
</g>
<g
   id="g868"
   transform="translate(0,57)">
</g>
<g
   id="g870"
   transform="translate(0,57)">
</g>
<g
   id="g872"
   transform="translate(0,57)">
</g>
<g
   id="g874"
   transform="translate(0,57)">
</g>
<g
   id="g876"
   transform="translate(0,57)">
</g>
<g
   id="g878"
   transform="translate(0,57)">
</g>
<g
   id="g880"
   transform="translate(0,57)">
</g>
<g
   id="g882"
   transform="translate(0,57)">
</g>
<g
   id="g884"
   transform="translate(0,57)">
</g>
<g
   id="g886"
   transform="translate(0,57)">
</g>
<g
   id="g888"
   transform="translate(0,57)">
</g>
<g
   id="g890"
   transform="translate(0,57)">
</g>
<g
   id="g892"
   transform="translate(0,57)">
</g>
</svg>